Coordinates
version=1
nRows=14
nColumns=36
inDegrees=yes

Units are S.I. units (second, meters, Newtons, ...)
If the header above contains a line with 'inDegrees', this indicates whether rotational values are in degrees (yes) or radians (no).

endheader
time	pelvis_tilt	pelvis_list	pelvis_rotation	pelvis_tx	pelvis_ty	pelvis_tz	hip_flexion_r	hip_adduction_r	hip_rotation_r	knee_angle_r	knee_angle_r_beta	ankle_angle_r	subtalar_angle_r	mtp_angle_r	hip_flexion_l	hip_adduction_l	hip_rotation_l	knee_angle_l	knee_angle_l_beta	ankle_angle_l	subtalar_angle_l	mtp_angle_l	lumbar_extension	lumbar_bending	lumbar_rotation	arm_flex_r	arm_add_r	arm_rot_r	elbow_flex_r	pro_sup_r	arm_flex_l	arm_add_l	arm_rot_l	elbow_flex_l	pro_sup_l
      0.00000000	     -4.14978782	      0.19179954	     -1.94651933	     -0.09334895	      0.87384614	      0.09931963	      7.70774535	     -7.26002977	     -5.33520119	     11.15777136	      0.19473985	      3.44054855	     -1.73227316	     -7.41860988	      2.85726181	     -8.13885722	    -11.98506055	      5.30243659	      0.09254498	     10.38017608	      6.36456218	     -7.41860988	     -2.68439961	      2.16732109	     -3.27248100	     36.62304375	      8.78027806	     48.05730393	    119.92161544	    104.77001716	     35.85218086	      9.96542889	     57.75067753	    126.66272280	    106.22988080
      0.01666670	     -6.60656939	      0.26287391	     -2.09704582	     -0.09252461	      0.86937284	      0.09847041	     10.01442547	     -7.48451249	     -5.45069485	     10.92806749	      0.19073076	      7.15520775	      1.13474898	     -7.42846536	      5.66293727	     -7.94094231	    -12.94492994	      5.55963660	      0.09703396	     11.15250652	      7.53546030	     -7.42846536	      0.61627247	      1.88291732	     -2.60145788	     36.73217262	      8.24868530	     47.07018693	    122.58095140	    102.51463325	     38.16730165	     10.95039019	     59.11863543	    127.46351896	    104.14478963
      0.03333330	     -7.56141063	      0.61156308	     -2.47051435	     -0.09306189	      0.87273698	      0.09986810	     10.61717970	     -7.66993391	     -5.94657860	      9.81312464	      0.17127133	      6.84202611	      1.61127875	     -7.42934986	      6.28448896	     -7.68325224	    -14.12256054	      4.70637855	      0.08214180	      9.83731999	      7.38004128	     -7.42934986	      1.13747121	      1.18451802	     -2.42852392	     35.67682163	      8.17271245	     47.23564491	    123.36374516	    102.48243086	     38.56448084	     10.44101879	     58.89210817	    128.56363991	    103.97081535
      0.05000000	     -7.55935802	      0.79762357	     -2.75118434	     -0.08935872	      0.87291339	      0.10044005	     10.09547416	     -7.77719659	     -6.47232740	      8.69323318	      0.15172554	      6.89604518	      3.32588718	     -7.44301870	      5.52569579	     -7.44556673	    -14.63772261	      3.44347280	      0.06009994	      9.18514341	      7.36958596	     -7.44301870	      1.11054759	      0.56811688	     -2.67492453	     34.45952512	      8.62153514	     49.64523960	    124.16350560	     99.52738155	     38.76023127	     10.21855767	     58.36359538	    127.72832160	    100.06873178
      0.06666670	     -7.76683170	      0.84111612	     -2.93365748	     -0.08903324	      0.87248149	      0.09980931	      9.93351456	     -7.71317200	     -7.00425318	      7.78462361	      0.13586731	      6.68202358	      4.27403433	     -7.45241140	      5.16139362	     -7.26362555	    -15.24541390	      2.41155313	      0.04208954	      8.82135612	      7.57573519	     -7.45241140	      1.34420930	      0.47207220	     -2.67973579	     33.53537699	      8.94763871	     51.60431277	    124.28858732	     99.44406399	     38.25108393	      9.99723469	     58.03849390	    127.10258980	     98.78366213
      0.08333330	     -7.76657734	      0.89460339	     -2.88649501	     -0.09273255	      0.87341974	      0.10088978	      9.72764125	     -7.65240314	     -7.07859484	      7.18184678	      0.12534687	      6.47609471	      4.82741549	     -7.45321770	      5.02900141	     -7.10940974	    -15.41054558	      1.86528581	      0.03255538	      8.39949349	      7.45670261	     -7.45321770	      1.35305211	      0.26006611	     -2.64319373	     32.77231621	      9.19533512	     52.76452110	    124.03105413	     99.52855195	     37.64971165	     10.05048309	     58.08017897	    126.62502056	     98.43616833
      0.10000000	     -7.64054268	      0.93359846	     -2.75525427	     -0.09337859	      0.87400542	      0.10118961	      9.52357082	     -7.67257807	     -7.24219631	      6.89056030	      0.12026296	      6.51950496	      5.33330675	     -7.46932835	      4.91356544	     -6.99393327	    -15.44973096	      1.58005801	      0.02757721	      8.05402692	      7.30568063	     -7.46932835	      1.24124944	      0.09667476	     -2.76496811	     32.50405737	      9.40353807	     53.74836013	    123.66289500	     98.46417842	     37.09083931	     10.00760571	     58.01301157	    126.43724671	     93.81142105
      0.11666670	     -7.47801010	      0.94733981	     -2.62447613	     -0.09403661	      0.87313401	      0.10088715	      9.34840081	     -7.67805230	     -7.23334372	      6.77378313	      0.11822482	      6.42709217	      5.39834795	     -7.48504329	      4.76461524	     -6.89687849	    -15.49398973	      1.40400314	      0.02450448	      7.75287437	      7.16589661	     -7.48504329	      1.15723279	     -0.06807261	     -2.85640110	     32.52840577	      9.65740354	     55.03023920	    123.81955314	     97.71009499	     36.51907667	     10.11372500	     57.75675328	    126.25211663	     92.51337541
      0.13333330	     -7.29822683	      0.95356121	     -2.55896662	     -0.09422137	      0.87402351	      0.10088841	      9.09926399	     -7.68281694	     -7.15812587	      6.63453077	      0.11579441	      6.34324815	      5.46387330	     -7.49043002	      4.63538820	     -6.85896303	    -15.61097679	      1.38758977	      0.02421801	      7.49465979	      7.17532030	     -7.49043002	      0.99898381	     -0.23934427	     -2.81981270	     32.72571526	      9.64197231	     55.63661163	    123.68706434	     96.92007096	     35.86493238	     10.27335042	     57.51086720	    126.08346349	     91.29510061
      0.15000000	     -7.06673192	      0.86308011	     -2.46112505	     -0.09494464	      0.87516962	      0.10123012	      8.76661617	     -7.58252096	     -7.27928518	      6.41596174	      0.11197966	      6.08074083	      5.44182753	     -7.49414321	      4.45901142	     -6.93729571	    -15.63039575	      1.42607275	      0.02488966	      7.14765623	      7.00597456	     -7.49414321	      0.68232564	     -0.27944845	     -2.90636204	     32.98057067	      9.51343520	     55.76855715	    123.45840882	     96.90439278	     35.53069337	     10.26734640	     56.86344211	    125.81090899	     90.42797157
      0.16666670	     -6.86027361	      0.78091776	     -2.30651575	     -0.09589539	      0.87450084	      0.10152491	      8.41671421	     -7.48368004	     -7.48592575	      6.16626999	      0.10762171	      5.79028367	      5.46468319	     -7.49741431	      4.31088579	     -7.01366108	    -15.59451521	      1.43180440	      0.02498970	      6.79896602	      6.88650747	     -7.49741431	      0.43350342	     -0.32596633	     -2.93860025	     33.27062415	      9.36515686	     55.75692347	    123.24247567	     97.23711448	     35.33453955	     10.32171936	     56.41050851	    125.67787912	     89.78319718
      0.18333330	     -6.70974985	      0.71157256	     -2.22742935	     -0.09736918	      0.87458505	      0.10199088	      8.21433028	     -7.37223454	     -7.57196324	      5.96944494	      0.10418647	      5.53315357	      5.32003138	     -7.49839236	      4.26205670	     -7.10907480	    -15.75824493	      1.45906497	      0.02546549	      6.58605813	      7.00504351	     -7.49839236	      0.18867717	     -0.40961362	     -2.89824237	     33.50245806	      9.20691066	     55.83558134	    123.44966770	     97.50022330	     35.36618251	     10.24392247	     55.63247748	    125.39028229	     89.31245400
      0.20000000	     -6.58734964	      0.62851453	     -2.17821129	     -0.09904518	      0.87243681	      0.10208415	      8.23351660	     -7.28110696	     -7.56431332	      6.11166336	      0.10666865	      5.51222484	      5.04354159	     -7.49923975	      4.27995436	     -7.21550064	    -15.61328774	      1.49692243	      0.02612623	      6.59499307	      6.83697887	     -7.49923975	      0.00083545	     -0.47568277	     -2.93303496	     33.79129322	      9.35725628	     56.55913459	    124.02055719	     98.10059179	     35.32927656	     10.40478404	     55.21074645	    125.41025385	     89.21444350
      0.21666670	     -6.48587058	      0.64177031	     -2.10310818	     -0.10290444	      0.86992103	      0.10193472	      8.24679823	     -7.30269756	     -7.57165851	      6.17265352	      0.10773313	      5.68593027	      4.96881322	     -7.49966401	      4.49387422	     -7.22683707	    -15.37921774	      1.67377193	      0.02921283	      6.72969859	      6.56985922	     -7.49966401	     -0.22528613	     -0.63723815	     -3.04789684	     34.20797638	      9.45943000	     56.30781288	    124.15830167	     98.65081149	     35.35619218	     10.57156391	     55.09510933	    126.12398322	     88.93970043
